<svg width="1024" height="250" viewBox="0 0 1024 250" fill="none" xmlns="http://www.w3.org/2000/svg">
<g clip-path="url(#clip0_244_1241)">
<rect width="1024" height="250" rx="32" fill="#FFC8A9"/>
<path fill-rule="evenodd" clip-rule="evenodd" d="M0 119.221L11.0933 125.449C23.04 131.677 45.2267 144.132 68.2667 153.473C91.3067 162.814 113.493 169.042 136.533 162.814C159.573 156.587 181.76 137.904 204.8 150.359C227.84 162.814 250.027 206.407 273.067 203.293C296.107 200.18 318.293 150.359 341.333 128.563C364.373 106.766 386.56 112.994 409.6 134.79C432.64 156.587 454.827 193.952 477.867 197.066C500.907 200.18 523.093 169.042 546.133 150.359C569.173 131.677 591.36 125.449 614.4 137.904C637.44 150.359 659.627 181.497 682.667 197.066C705.707 212.635 727.893 212.635 750.933 209.521C773.973 206.407 796.16 200.18 819.2 193.952C842.24 187.724 864.427 181.497 887.467 181.497C910.507 181.497 932.693 187.724 955.733 181.497C978.773 175.269 1000.96 156.587 1012.91 147.245L1024 137.904V250H1012.91C1000.96 250 978.773 250 955.733 250C932.693 250 910.507 250 887.467 250C864.427 250 842.24 250 819.2 250C796.16 250 773.973 250 750.933 250C727.893 250 705.707 250 682.667 250C659.627 250 637.44 250 614.4 250C591.36 250 569.173 250 546.133 250C523.093 250 500.907 250 477.867 250C454.827 250 432.64 250 409.6 250C386.56 250 364.373 250 341.333 250C318.293 250 296.107 250 273.067 250C250.027 250 227.84 250 204.8 250C181.76 250 159.573 250 136.533 250C113.493 250 91.3067 250 68.2667 250C45.2267 250 23.04 250 11.0933 250H0V119.221Z" fill="#E98144"/>
<path fill-rule="evenodd" clip-rule="evenodd" d="M-4 147.8L7.18 152.667C19.22 157.533 41.58 167.267 64.8 184.3C88.02 201.333 110.38 225.667 133.6 218.367C156.82 211.067 179.18 172.133 202.4 157.533C225.62 142.933 247.98 152.667 271.2 167.267C294.42 181.867 316.78 201.333 340 194.033C363.22 186.733 385.58 152.667 408.8 150.233C432.02 147.8 454.38 177 477.6 196.467C500.82 215.933 523.18 225.667 546.4 213.5C569.62 201.333 591.98 167.267 615.2 145.367C638.42 123.467 660.78 113.733 684 121.033C707.22 128.333 729.58 152.667 752.8 172.133C776.02 191.6 798.38 206.2 821.6 196.467C844.82 186.733 867.18 152.667 890.4 147.8C913.62 142.933 935.98 167.267 959.2 164.833C982.42 162.4 1004.78 133.2 1016.82 118.6L1028 104V250H1016.82C1004.78 250 982.42 250 959.2 250C935.98 250 913.62 250 890.4 250C867.18 250 844.82 250 821.6 250C798.38 250 776.02 250 752.8 250C729.58 250 707.22 250 684 250C660.78 250 638.42 250 615.2 250C591.98 250 569.62 250 546.4 250C523.18 250 500.82 250 477.6 250C454.38 250 432.02 250 408.8 250C385.58 250 363.22 250 340 250C316.78 250 294.42 250 271.2 250C247.98 250 225.62 250 202.4 250C179.18 250 156.82 250 133.6 250C110.38 250 88.02 250 64.8 250C41.58 250 19.22 250 7.18 250H-4V147.8Z" fill="#D56244"/>
<g clip-path="url(#clip1_244_1241)">
<path d="M880.082 132.384L853.779 144.083L842.08 117.78L868.383 106.081L861.081 125.082L880.082 132.384Z" fill="#D56244"/>
</g>
<g clip-path="url(#clip2_244_1241)">
<path d="M130.347 110.36C129.575 110.756 128.934 111.367 128.501 112.119L120.272 126.37C119.871 127.067 119.665 127.859 119.675 128.663L127.551 128.49C127.567 127.993 127.704 127.508 127.949 127.075L132.937 118.431C133.207 117.964 133.595 117.576 134.062 117.306C134.529 117.037 135.058 116.895 135.598 116.895L145.578 116.897C145.989 116.895 146.396 116.975 146.775 117.133L150.725 110.287C150.135 110.015 149.492 109.875 148.842 109.875L132.395 109.871C131.687 109.872 130.988 110.04 130.357 110.363L130.347 110.36ZM134.415 117.912C134.054 118.12 133.755 118.42 133.546 118.78L128.556 127.418C128.372 127.74 128.267 128.101 128.249 128.472L132.073 128.391C132.102 128.149 132.18 127.916 132.301 127.705L135.667 121.875C135.829 121.596 136.061 121.365 136.339 121.204C136.618 121.043 136.934 120.958 137.256 120.958L143.982 120.961C144.163 120.966 144.343 120.997 144.515 121.054L144.534 121.023L144.529 121.022L146.424 117.751C146.154 117.646 145.868 117.591 145.579 117.59L135.6 117.587C135.184 117.589 134.776 117.701 134.417 117.911L134.415 117.912ZM151.188 110.544L147.235 117.382C147.651 117.646 147.998 118.007 148.246 118.435L153.233 127.074C153.781 128.022 153.788 129.193 153.237 130.152L148.25 138.795C148.049 139.137 147.784 139.436 147.469 139.677L151.418 146.516C151.956 146.152 152.409 145.675 152.745 145.119L160.97 130.871C161.365 130.187 161.573 129.412 161.573 128.623C161.574 127.834 161.367 127.058 160.973 126.375L152.748 112.129C152.37 111.481 151.836 110.939 151.195 110.55L151.188 110.544ZM119.746 129.177C119.805 129.771 119.982 130.347 120.267 130.871L128.497 145.126C129.298 146.514 130.781 147.369 132.397 147.367L148.848 147.369C149.599 147.364 150.337 147.171 150.993 146.807L147.039 139.958C146.589 140.202 146.086 140.33 145.575 140.33L135.602 140.335C135.063 140.333 134.533 140.189 134.066 139.918C133.6 139.647 133.212 139.258 132.943 138.79L127.954 130.15C127.751 129.8 127.618 129.414 127.562 129.013L119.746 129.177ZM146.885 117.988L144.981 121.289C145.22 121.437 145.421 121.638 145.57 121.876L148.936 127.705C149.266 128.276 149.262 128.968 148.932 129.535L145.574 135.364C145.478 135.521 145.359 135.662 145.221 135.783L147.115 139.063C147.321 138.89 147.506 138.68 147.643 138.442L152.629 129.801C152.838 129.44 152.947 129.029 152.947 128.612C152.947 128.195 152.836 127.785 152.627 127.424L147.639 118.785C147.453 118.467 147.196 118.196 146.887 117.995L146.885 117.988ZM128.274 128.996C128.32 129.279 128.417 129.551 128.561 129.8L133.548 138.439C133.757 138.801 134.056 139.101 134.418 139.31C134.779 139.519 135.189 139.629 135.606 139.629L145.585 139.632C145.976 139.632 146.353 139.524 146.687 139.353L144.79 136.066C144.542 136.198 144.268 136.272 143.987 136.282L137.26 136.28C136.938 136.282 136.621 136.199 136.34 136.039C136.06 135.88 135.827 135.649 135.663 135.371L132.301 129.547C132.187 129.349 132.114 129.131 132.085 128.905L132.023 128.915L128.274 128.996Z" fill="#E98144"/>
</g>
<path d="M508.291 143.968L508.066 137.985C508.05 137.59 507.859 137.39 507.492 137.384C507.115 137.413 506.929 137.616 506.931 137.987L507.142 144.026C504.415 144.294 501.845 145.122 499.435 146.514C497.024 147.906 495.021 149.717 493.426 151.945L488.302 148.742C487.981 148.555 487.713 148.616 487.499 148.927C487.32 149.249 487.398 149.513 487.733 149.725L492.802 152.911C491.088 155.614 490.164 158.533 490.036 161.672C489.908 164.812 490.63 167.745 492.207 170.476L523.766 152.255C522.19 149.525 520.01 147.433 517.227 145.973C514.444 144.515 511.466 143.848 508.291 143.968ZM498.135 158.722C498.028 159.143 497.793 159.458 497.429 159.668C497.065 159.878 496.681 159.921 496.275 159.796C495.87 159.672 495.561 159.425 495.345 159.05C495.129 158.677 495.069 158.285 495.164 157.871C495.26 157.459 495.489 157.147 495.853 156.938C496.217 156.728 496.607 156.681 497.024 156.798C497.441 156.916 497.757 157.16 497.972 157.533C498.187 157.907 498.241 158.304 498.135 158.722ZM512.515 150.42C512.42 150.834 512.191 151.145 511.827 151.355C511.463 151.565 511.073 151.612 510.656 151.493C510.239 151.376 509.924 151.132 509.708 150.758C509.492 150.385 509.438 149.989 509.545 149.569C509.651 149.15 509.887 148.835 510.251 148.625C510.615 148.415 510.999 148.372 511.404 148.495C511.81 148.62 512.12 148.868 512.335 149.241C512.551 149.615 512.611 150.007 512.515 150.42Z" fill="#D56244"/>
<path d="M282.467 78.5333C281.356 78.5333 280.256 78.3556 279.167 78C278.078 77.6667 277.156 77.1111 276.4 76.3333L277.733 71.5333C278.222 72.2889 278.833 72.9 279.567 73.3667C280.322 73.8111 281.167 74.0333 282.1 74.0333C283.211 74.0333 284.156 73.6556 284.933 72.9C285.733 72.1444 286.133 70.8444 286.133 69V48H291.133V69.3667C291.133 71.4778 290.722 73.2111 289.9 74.5667C289.1 75.9222 288.033 76.9222 286.7 77.5667C285.389 78.2111 283.978 78.5333 282.467 78.5333ZM306.961 78.5333C304.806 78.5333 302.884 78.0667 301.195 77.1333C299.506 76.2 298.184 74.9222 297.228 73.3C296.295 71.6778 295.828 69.8444 295.828 67.8C295.828 65.8444 296.284 64.0889 297.195 62.5333C298.128 60.9778 299.373 59.7444 300.928 58.8333C302.506 57.9222 304.239 57.4667 306.128 57.4667C308.039 57.4667 309.761 57.9111 311.295 58.8C312.85 59.6889 314.084 60.9 314.995 62.4333C315.906 63.9444 316.361 65.6667 316.361 67.6V69.3667H303.728C303.173 69.3667 302.617 69.3444 302.061 69.3C301.506 69.2333 300.95 69.1556 300.395 69.0667C300.661 70.6 301.395 71.8778 302.595 72.9C303.817 73.9222 305.306 74.4333 307.061 74.4333C308.328 74.4333 309.484 74.1667 310.528 73.6333C311.573 73.0778 312.428 72.3667 313.095 71.5L314.228 76.1667C313.25 76.9444 312.139 77.5333 310.895 77.9333C309.65 78.3333 308.339 78.5333 306.961 78.5333ZM300.295 66.0667C301.45 65.8444 302.595 65.7333 303.728 65.7333H308.795C309.35 65.7333 309.884 65.7556 310.395 65.8C310.928 65.8444 311.439 65.9 311.928 65.9667C311.595 64.6111 310.895 63.5111 309.828 62.6667C308.784 61.8 307.539 61.3667 306.095 61.3667C304.695 61.3667 303.461 61.8111 302.395 62.7C301.328 63.5889 300.628 64.7111 300.295 66.0667ZM322.705 78V61.8H318.572V58H322.805V51.3333H327.305V58H331.772V61.8H327.405V78H322.705ZM335.372 88V58H339.539V60.3C340.383 59.4556 341.372 58.8 342.505 58.3333C343.639 57.8444 344.861 57.6 346.172 57.6C348.016 57.6 349.694 58.0667 351.205 59C352.716 59.9333 353.916 61.1889 354.805 62.7667C355.716 64.3444 356.172 66.0889 356.172 68C356.172 69.9111 355.716 71.6556 354.805 73.2333C353.916 74.8111 352.716 76.0667 351.205 77C349.694 77.9333 348.016 78.4 346.172 78.4C344.994 78.4 343.883 78.2111 342.839 77.8333C341.816 77.4333 340.894 76.8889 340.072 76.2V88H335.372ZM345.605 74.2C346.716 74.2 347.727 73.9222 348.639 73.3667C349.572 72.8111 350.305 72.0667 350.839 71.1333C351.394 70.2 351.672 69.1556 351.672 68C351.672 66.8667 351.394 65.8333 350.839 64.9C350.305 63.9444 349.583 63.1889 348.672 62.6333C347.761 62.0778 346.739 61.8 345.605 61.8C344.494 61.8 343.472 62.0778 342.539 62.6333C341.627 63.1889 340.894 63.9333 340.339 64.8667C339.805 65.8 339.539 66.8444 339.539 68C339.539 69.1333 339.805 70.1778 340.339 71.1333C340.894 72.0667 341.627 72.8111 342.539 73.3667C343.45 73.9222 344.472 74.2 345.605 74.2ZM369.123 78.4C367.301 78.4 365.634 77.9333 364.123 77C362.612 76.0667 361.401 74.8111 360.49 73.2333C359.601 71.6556 359.156 69.9111 359.156 68C359.156 66.0889 359.601 64.3444 360.49 62.7667C361.401 61.1889 362.612 59.9333 364.123 59C365.634 58.0667 367.301 57.6 369.123 57.6C370.456 57.6 371.69 57.8444 372.823 58.3333C373.978 58.8 374.967 59.4667 375.79 60.3333V58H379.956V78H375.79V75.6667C374.967 76.5111 373.978 77.1778 372.823 77.6667C371.69 78.1556 370.456 78.4 369.123 78.4ZM369.723 74.2C370.834 74.2 371.845 73.9222 372.756 73.3667C373.69 72.8111 374.423 72.0667 374.956 71.1333C375.512 70.2 375.79 69.1556 375.79 68C375.79 66.8667 375.512 65.8333 374.956 64.9C374.423 63.9444 373.701 63.1889 372.79 62.6333C371.878 62.0778 370.856 61.8 369.723 61.8C368.612 61.8 367.59 62.0778 366.656 62.6333C365.745 63.1889 365.012 63.9333 364.456 64.8667C363.923 65.8 363.656 66.8444 363.656 68C363.656 69.1333 363.923 70.1778 364.456 71.1333C365.012 72.0667 365.745 72.8111 366.656 73.3667C367.567 73.9222 368.59 74.2 369.723 74.2ZM394.841 78.5333C392.863 78.5333 391.063 78.0667 389.441 77.1333C387.818 76.1778 386.53 74.9 385.574 73.3C384.618 71.7 384.141 69.9333 384.141 68C384.141 66.0444 384.618 64.2778 385.574 62.7C386.53 61.1 387.818 59.8333 389.441 58.9C391.063 57.9444 392.863 57.4667 394.841 57.4667C396.241 57.4667 397.563 57.7111 398.807 58.2C400.074 58.6667 401.185 59.3333 402.141 60.2L400.841 65.4333C400.285 64.4333 399.496 63.5778 398.474 62.8667C397.452 62.1333 396.274 61.7667 394.941 61.7667C393.785 61.7667 392.73 62.0556 391.774 62.6333C390.841 63.1889 390.096 63.9333 389.541 64.8667C389.007 65.8 388.741 66.8444 388.741 68C388.741 69.1333 389.007 70.1778 389.541 71.1333C390.096 72.0667 390.841 72.8222 391.774 73.4C392.73 73.9556 393.785 74.2333 394.941 74.2333C396.274 74.2333 397.452 73.8778 398.474 73.1667C399.496 72.4556 400.285 71.5889 400.841 70.5667L402.141 75.8C401.185 76.6667 400.074 77.3444 398.807 77.8333C397.563 78.3 396.241 78.5333 394.841 78.5333ZM418.992 78L410.492 67L417.492 58H422.692L415.825 66.6L424.692 78H418.992ZM405.825 78V46H410.525V78H405.825ZM452.432 78.6C450.255 78.6 448.21 78.2 446.299 77.4C444.388 76.5778 442.71 75.4556 441.266 74.0333C439.821 72.6111 438.688 70.9556 437.866 69.0667C437.066 67.1778 436.666 65.1556 436.666 63C436.666 60.8444 437.066 58.8222 437.866 56.9333C438.688 55.0444 439.821 53.3889 441.266 51.9667C442.71 50.5444 444.388 49.4333 446.299 48.6333C448.21 47.8111 450.255 47.4 452.432 47.4C454.477 47.4 456.399 47.7556 458.199 48.4667C460.021 49.1778 461.632 50.1778 463.032 51.4667L461.632 57.2667C460.721 55.7556 459.466 54.5222 457.866 53.5667C456.288 52.5889 454.51 52.1 452.532 52.1C450.532 52.1 448.721 52.5889 447.099 53.5667C445.499 54.5444 444.221 55.8556 443.266 57.5C442.332 59.1444 441.866 60.9778 441.866 63C441.866 65 442.332 66.8333 443.266 68.5C444.221 70.1444 445.499 71.4556 447.099 72.4333C448.721 73.4111 450.532 73.9 452.532 73.9C454.51 73.9 456.288 73.4111 457.866 72.4333C459.466 71.4556 460.721 70.2222 461.632 68.7333L463.032 74.5333C461.632 75.8 460.021 76.8 458.199 77.5333C456.399 78.2444 454.477 78.6 452.432 78.6ZM476.417 78.5333C474.461 78.5333 472.672 78.0667 471.05 77.1333C469.428 76.1778 468.139 74.9 467.183 73.3C466.228 71.7 465.75 69.9333 465.75 68C465.75 66.0444 466.228 64.2778 467.183 62.7C468.139 61.1 469.428 59.8333 471.05 58.9C472.672 57.9444 474.461 57.4667 476.417 57.4667C478.394 57.4667 480.183 57.9444 481.783 58.9C483.406 59.8333 484.694 61.1 485.65 62.7C486.606 64.2778 487.083 66.0444 487.083 68C487.083 69.9333 486.606 71.7 485.65 73.3C484.694 74.9 483.406 76.1778 481.783 77.1333C480.183 78.0667 478.394 78.5333 476.417 78.5333ZM476.417 74.2333C477.55 74.2333 478.583 73.9556 479.517 73.4C480.45 72.8222 481.183 72.0667 481.717 71.1333C482.272 70.2 482.55 69.1556 482.55 68C482.55 66.8444 482.272 65.8 481.717 64.8667C481.183 63.9333 480.45 63.1889 479.517 62.6333C478.583 62.0556 477.55 61.7667 476.417 61.7667C475.283 61.7667 474.25 62.0556 473.317 62.6333C472.383 63.1889 471.639 63.9333 471.083 64.8667C470.55 65.8 470.283 66.8444 470.283 68C470.283 69.1556 470.55 70.2 471.083 71.1333C471.639 72.0667 472.372 72.8222 473.283 73.4C474.217 73.9556 475.261 74.2333 476.417 74.2333ZM491.278 78V58H495.545V60.5333C496.278 59.5111 497.189 58.7444 498.278 58.2333C499.367 57.7222 500.511 57.4667 501.711 57.4667C502.978 57.4667 504.145 57.7444 505.211 58.3C506.3 58.8556 507.2 59.6556 507.911 60.7C508.689 59.6333 509.667 58.8333 510.845 58.3C512.045 57.7444 513.334 57.4667 514.711 57.4667C516.178 57.4667 517.534 57.8111 518.778 58.5C520.023 59.1667 521.023 60.1333 521.778 61.4C522.556 62.6667 522.945 64.1889 522.945 65.9667V78H518.245V66.6C518.245 65.1556 517.823 64 516.978 63.1333C516.156 62.2444 515.111 61.8 513.845 61.8C513.111 61.8 512.4 61.9667 511.711 62.3C511.045 62.6333 510.5 63.1556 510.078 63.8667C509.678 64.5556 509.478 65.4444 509.478 66.5333V78H504.745V66.6C504.745 65.6222 504.545 64.7778 504.145 64.0667C503.767 63.3333 503.245 62.7667 502.578 62.3667C501.911 61.9667 501.178 61.7667 500.378 61.7667C499.667 61.7667 498.967 61.9444 498.278 62.3C497.611 62.6333 497.056 63.1444 496.611 63.8333C496.189 64.5222 495.978 65.4222 495.978 66.5333V78H491.278ZM527.934 88V58H532.101V60.3C532.945 59.4556 533.934 58.8 535.068 58.3333C536.201 57.8444 537.423 57.6 538.734 57.6C540.579 57.6 542.257 58.0667 543.768 59C545.279 59.9333 546.479 61.1889 547.368 62.7667C548.279 64.3444 548.734 66.0889 548.734 68C548.734 69.9111 548.279 71.6556 547.368 73.2333C546.479 74.8111 545.279 76.0667 543.768 77C542.257 77.9333 540.579 78.4 538.734 78.4C537.557 78.4 536.445 78.2111 535.401 77.8333C534.379 77.4333 533.457 76.8889 532.634 76.2V88H527.934ZM538.168 74.2C539.279 74.2 540.29 73.9222 541.201 73.3667C542.134 72.8111 542.868 72.0667 543.401 71.1333C543.957 70.2 544.234 69.1556 544.234 68C544.234 66.8667 543.957 65.8333 543.401 64.9C542.868 63.9444 542.145 63.1889 541.234 62.6333C540.323 62.0778 539.301 61.8 538.168 61.8C537.057 61.8 536.034 62.0778 535.101 62.6333C534.19 63.1889 533.457 63.9333 532.901 64.8667C532.368 65.8 532.101 66.8444 532.101 68C532.101 69.1333 532.368 70.1778 532.901 71.1333C533.457 72.0667 534.19 72.8111 535.101 73.3667C536.012 73.9222 537.034 74.2 538.168 74.2ZM562.385 78.5333C560.43 78.5333 558.641 78.0667 557.019 77.1333C555.397 76.1778 554.108 74.9 553.152 73.3C552.197 71.7 551.719 69.9333 551.719 68C551.719 66.0444 552.197 64.2778 553.152 62.7C554.108 61.1 555.397 59.8333 557.019 58.9C558.641 57.9444 560.43 57.4667 562.385 57.4667C564.363 57.4667 566.152 57.9444 567.752 58.9C569.374 59.8333 570.663 61.1 571.619 62.7C572.574 64.2778 573.052 66.0444 573.052 68C573.052 69.9333 572.574 71.7 571.619 73.3C570.663 74.9 569.374 76.1778 567.752 77.1333C566.152 78.0667 564.363 78.5333 562.385 78.5333ZM562.385 74.2333C563.519 74.2333 564.552 73.9556 565.485 73.4C566.419 72.8222 567.152 72.0667 567.685 71.1333C568.241 70.2 568.519 69.1556 568.519 68C568.519 66.8444 568.241 65.8 567.685 64.8667C567.152 63.9333 566.419 63.1889 565.485 62.6333C564.552 62.0556 563.519 61.7667 562.385 61.7667C561.252 61.7667 560.219 62.0556 559.285 62.6333C558.352 63.1889 557.608 63.9333 557.052 64.8667C556.519 65.8 556.252 66.8444 556.252 68C556.252 69.1556 556.519 70.2 557.052 71.1333C557.608 72.0667 558.341 72.8222 559.252 73.4C560.185 73.9556 561.23 74.2333 562.385 74.2333ZM583.114 78.5333C581.914 78.5333 580.669 78.3333 579.38 77.9333C578.114 77.5111 577.08 76.8778 576.28 76.0333L577.48 71.3333C578.125 72.2889 578.98 73.0889 580.047 73.7333C581.114 74.3778 582.225 74.7 583.38 74.7C584.336 74.7 585.036 74.4889 585.48 74.0667C585.925 73.6444 586.147 73.1333 586.147 72.5333C586.147 71.8667 585.914 71.3778 585.447 71.0667C584.98 70.7333 584.536 70.4889 584.114 70.3333L581.347 69.3C580.791 69.0778 580.136 68.7667 579.38 68.3667C578.647 67.9444 578.002 67.3556 577.447 66.6C576.891 65.8444 576.614 64.8556 576.614 63.6333C576.614 62.5222 576.88 61.5 577.414 60.5667C577.969 59.6333 578.758 58.8889 579.78 58.3333C580.802 57.7556 582.025 57.4667 583.447 57.4667C584.669 57.4667 585.858 57.6778 587.014 58.1C588.191 58.5222 589.114 59.0889 589.78 59.8L588.614 64.4333C587.969 63.4556 587.158 62.6889 586.18 62.1333C585.225 61.5778 584.269 61.3 583.314 61.3C582.491 61.3 581.869 61.5 581.447 61.9C581.025 62.3 580.814 62.7667 580.814 63.3C580.814 63.7 580.958 64.0778 581.247 64.4333C581.536 64.7667 582.002 65.0556 582.647 65.3L585.28 66.3C585.902 66.5222 586.602 66.8444 587.38 67.2667C588.18 67.6889 588.869 68.2889 589.447 69.0667C590.025 69.8444 590.314 70.9 590.314 72.2333C590.314 74.1 589.636 75.6222 588.28 76.8C586.947 77.9556 585.225 78.5333 583.114 78.5333ZM604.524 78.5333C602.368 78.5333 600.446 78.0667 598.757 77.1333C597.068 76.2 595.746 74.9222 594.791 73.3C593.857 71.6778 593.391 69.8444 593.391 67.8C593.391 65.8444 593.846 64.0889 594.757 62.5333C595.691 60.9778 596.935 59.7444 598.491 58.8333C600.068 57.9222 601.802 57.4667 603.691 57.4667C605.602 57.4667 607.324 57.9111 608.857 58.8C610.413 59.6889 611.646 60.9 612.557 62.4333C613.468 63.9444 613.924 65.6667 613.924 67.6V69.3667H601.291C600.735 69.3667 600.18 69.3444 599.624 69.3C599.068 69.2333 598.513 69.1556 597.957 69.0667C598.224 70.6 598.957 71.8778 600.157 72.9C601.38 73.9222 602.868 74.4333 604.624 74.4333C605.891 74.4333 607.046 74.1667 608.091 73.6333C609.135 73.0778 609.991 72.3667 610.657 71.5L611.791 76.1667C610.813 76.9444 609.702 77.5333 608.457 77.9333C607.213 78.3333 605.902 78.5333 604.524 78.5333ZM597.857 66.0667C599.013 65.8444 600.157 65.7333 601.291 65.7333H606.357C606.913 65.7333 607.446 65.7556 607.957 65.8C608.491 65.8444 609.002 65.9 609.491 65.9667C609.157 64.6111 608.457 63.5111 607.391 62.6667C606.346 61.8 605.102 61.3667 603.657 61.3667C602.257 61.3667 601.024 61.8111 599.957 62.7C598.891 63.5889 598.191 64.7111 597.857 66.0667ZM637.485 79.0333L625.519 48H630.619L636.552 63.4C636.797 64 637.019 64.6111 637.219 65.2333C637.419 65.8333 637.63 66.5667 637.852 67.4333C638.097 66.5667 638.33 65.8333 638.552 65.2333C638.774 64.6111 638.997 64 639.219 63.4L645.519 47L651.819 63.4C652.041 63.9778 652.274 64.5778 652.519 65.2C652.763 65.8 652.997 66.5444 653.219 67.4333C653.463 66.5444 653.685 65.8 653.885 65.2C654.108 64.5778 654.33 63.9778 654.552 63.4L660.419 48H665.252L653.319 79.0333L646.752 61.9C646.53 61.3222 646.308 60.7333 646.085 60.1333C645.863 59.5111 645.641 58.7556 645.419 57.8667C645.174 58.7556 644.941 59.5 644.719 60.1C644.497 60.7 644.274 61.3 644.052 61.9L637.485 79.0333ZM673.998 78.4C672.176 78.4 670.509 77.9333 668.998 77C667.487 76.0667 666.276 74.8111 665.365 73.2333C664.476 71.6556 664.031 69.9111 664.031 68C664.031 66.0889 664.476 64.3444 665.365 62.7667C666.276 61.1889 667.487 59.9333 668.998 59C670.509 58.0667 672.176 57.6 673.998 57.6C675.331 57.6 676.565 57.8444 677.698 58.3333C678.853 58.8 679.842 59.4667 680.665 60.3333V58H684.831V78H680.665V75.6667C679.842 76.5111 678.853 77.1778 677.698 77.6667C676.565 78.1556 675.331 78.4 673.998 78.4ZM674.598 74.2C675.709 74.2 676.72 73.9222 677.631 73.3667C678.565 72.8111 679.298 72.0667 679.831 71.1333C680.387 70.2 680.665 69.1556 680.665 68C680.665 66.8667 680.387 65.8333 679.831 64.9C679.298 63.9444 678.576 63.1889 677.665 62.6333C676.753 62.0778 675.731 61.8 674.598 61.8C673.487 61.8 672.465 62.0778 671.531 62.6333C670.62 63.1889 669.887 63.9333 669.331 64.8667C668.798 65.8 668.531 66.8444 668.531 68C668.531 69.1333 668.798 70.1778 669.331 71.1333C669.887 72.0667 670.62 72.8111 671.531 73.3667C672.442 73.9222 673.465 74.2 674.598 74.2ZM698.349 79L687.816 58H693.082L696.682 65.5333C697.016 66.2 697.327 66.8667 697.616 67.5333C697.905 68.1778 698.193 68.9444 698.482 69.8333C698.771 68.9444 699.06 68.1778 699.349 67.5333C699.638 66.8667 699.949 66.2 700.282 65.5333L703.882 58H708.882L698.349 79ZM720.821 78.5333C718.665 78.5333 716.743 78.0667 715.054 77.1333C713.365 76.2 712.043 74.9222 711.088 73.3C710.154 71.6778 709.688 69.8444 709.688 67.8C709.688 65.8444 710.143 64.0889 711.054 62.5333C711.988 60.9778 713.232 59.7444 714.788 58.8333C716.365 57.9222 718.099 57.4667 719.988 57.4667C721.899 57.4667 723.621 57.9111 725.154 58.8C726.71 59.6889 727.943 60.9 728.854 62.4333C729.765 63.9444 730.221 65.6667 730.221 67.6V69.3667H717.588C717.032 69.3667 716.476 69.3444 715.921 69.3C715.365 69.2333 714.81 69.1556 714.254 69.0667C714.521 70.6 715.254 71.8778 716.454 72.9C717.676 73.9222 719.165 74.4333 720.921 74.4333C722.188 74.4333 723.343 74.1667 724.388 73.6333C725.432 73.0778 726.287 72.3667 726.954 71.5L728.088 76.1667C727.11 76.9444 725.999 77.5333 724.754 77.9333C723.51 78.3333 722.199 78.5333 720.821 78.5333ZM714.154 66.0667C715.31 65.8444 716.454 65.7333 717.588 65.7333H722.654C723.21 65.7333 723.743 65.7556 724.254 65.8C724.788 65.8444 725.299 65.9 725.788 65.9667C725.454 64.6111 724.754 63.5111 723.688 62.6667C722.643 61.8 721.399 61.3667 719.954 61.3667C718.554 61.3667 717.321 61.8111 716.254 62.7C715.188 63.5889 714.488 64.7111 714.154 66.0667ZM740.098 78.5333C738.898 78.5333 737.653 78.3333 736.365 77.9333C735.098 77.5111 734.065 76.8778 733.265 76.0333L734.465 71.3333C735.109 72.2889 735.965 73.0889 737.031 73.7333C738.098 74.3778 739.209 74.7 740.365 74.7C741.32 74.7 742.02 74.4889 742.465 74.0667C742.909 73.6444 743.131 73.1333 743.131 72.5333C743.131 71.8667 742.898 71.3778 742.431 71.0667C741.965 70.7333 741.52 70.4889 741.098 70.3333L738.331 69.3C737.776 69.0778 737.12 68.7667 736.365 68.3667C735.631 67.9444 734.987 67.3556 734.431 66.6C733.876 65.8444 733.598 64.8556 733.598 63.6333C733.598 62.5222 733.865 61.5 734.398 60.5667C734.953 59.6333 735.742 58.8889 736.765 58.3333C737.787 57.7556 739.009 57.4667 740.431 57.4667C741.653 57.4667 742.842 57.6778 743.998 58.1C745.176 58.5222 746.098 59.0889 746.765 59.8L745.598 64.4333C744.953 63.4556 744.142 62.6889 743.165 62.1333C742.209 61.5778 741.253 61.3 740.298 61.3C739.476 61.3 738.853 61.5 738.431 61.9C738.009 62.3 737.798 62.7667 737.798 63.3C737.798 63.7 737.942 64.0778 738.231 64.4333C738.52 64.7667 738.987 65.0556 739.631 65.3L742.265 66.3C742.887 66.5222 743.587 66.8444 744.365 67.2667C745.165 67.6889 745.853 68.2889 746.431 69.0667C747.009 69.8444 747.298 70.9 747.298 72.2333C747.298 74.1 746.62 75.6222 745.265 76.8C743.931 77.9556 742.209 78.5333 740.098 78.5333Z" fill="#404040"/>
</g>
<defs>
<clipPath id="clip0_244_1241">
<rect width="1024" height="250" rx="32" fill="white"/>
</clipPath>
<clipPath id="clip1_244_1241">
<rect width="38" height="38" fill="white" transform="translate(836 115.443) rotate(-23.9786)"/>
</clipPath>
<clipPath id="clip2_244_1241">
<rect width="41.8925" height="41.8925" fill="white" transform="translate(112 120.946) rotate(-30)"/>
</clipPath>
</defs>
</svg>
